<svg enable-background="new 0 0 1000 1000" version="1.1" viewBox="0 0 1000 1000" x="0px" xml:space="preserve" xmlns="http://www.w3.org/2000/svg" xmlns:xlink="http://www.w3.org/1999/xlink" y="0px">
<metadata> Svg Vector Icons : http://www.onlinewebfonts.com/icon </metadata>
<g><path d="M752.7,406.1v-49.3H568v49.4h78.5v47.1c0,8.7-1.5,13-4.5,15.7c-3,2.6-7.6,4-13.7,4.1v14.7c15.9-0.5,27.4-3.9,34.8-10.4c7.3-6.4,11-16.2,11-29.3v-41.9h78.6V406.1L752.7,406.1L752.7,406.1z M726,390.8H594.7v-18.7H726V390.8L726,390.8L726,390.8z"></path><path d="M674.2,319.4h-27.7V331h-85.2v15.4h198.1V331h-85.2L674.2,319.4L674.2,319.4z"></path><path d="M561.3,487.3H577c33.6-29.2,42.3-71,42.3-71H589C585.4,445.9,572.9,470.7,561.3,487.3L561.3,487.3L561.3,487.3z"></path><path d="M701.4,416.4c0,0,8.8,41.7,42.3,71h15.7c-11.6-16.6-24-41.5-27.7-71H701.4L701.4,416.4L701.4,416.4z"></path><path d="M788.5,487.3h15.7c33.6-29.2,42.3-71,42.3-71h-30.3C812.5,445.9,800.1,470.7,788.5,487.3L788.5,487.3L788.5,487.3z"></path><path d="M928.5,416.4c0,0,8.8,41.7,42.3,71h15.7c-11.6-16.6-24.1-41.5-27.7-71H928.5L928.5,416.4L928.5,416.4z"></path><path d="M858.1,331l5.4-11.7h-27.7l-5.5,11.7h-41.9v15.4h34.7l-27.9,59.8h80.4v47.1c0,9.1-1.5,13-4.5,15.7c-3,2.6-7.6,4-13.7,4.1v14.7c15.8-0.5,27.4-3.9,34.8-10.4c7.3-6.4,11-16.2,11-29.3v-41.9h76.6v-15.4h-76.6v-33.1h-27.6v33.1h-45.1l20.5-44.5h135.5V331H858.1L858.1,331L858.1,331z"></path><path d="M445.6,362.1c-35.1-30.7-86.6-46.3-153-46.3h-78.3v368.4h78.3c66.4,0,118-15.6,153-46.2c34.9-30.5,53.2-78.2,53.2-137.9C498.8,440.3,480.5,392.5,445.6,362.1 M405.4,598.5c-23.4,21.4-59,32.3-106,32.3h-27.2V369.5h27.2c46.9,0,82.6,10.9,106,32.2c23,20.9,35.1,54.9,35.1,98.5C440.5,543.6,428.4,577.6,405.4,598.5L405.4,598.5L405.4,598.5z"></path><path d="M113,538.1c0,24.3-1.6,41.3-4.8,50.8c-3,9-8.2,16.5-15.5,22.2c-8.8,6.7-19.5,11.6-31.8,14.8c-12,3.1-27.1,4.7-44.8,4.8H10v53.4h5.9c1.3,0.1,2.4,0,2.8,0c51.1,0,91.2-10.9,116-32.1c25.4-21.8,38.3-54.8,38.3-98.2V315.9h-60L113,538.1L113,538.1L113,538.1z"></path><path d="M754.9,534.2c-40.6,0-73.6,33-73.6,73.6c0,40.6,33,73.6,73.6,73.6s73.6-33,73.6-73.6C828.5,567.2,795.4,534.2,754.9,534.2 M754.9,659.3c-28.4,0-51.5-23.2-51.5-51.5c0-28.4,23.1-51.5,51.5-51.5s51.5,23.1,51.5,51.5C806.4,636.2,783.3,659.3,754.9,659.3L754.9,659.3L754.9,659.3z"></path><path d="M515.1,626.8c-7.8,0-14.1,6.3-14.1,14.1c0,7.8,6.3,14.1,14.1,14.1c7.8,0,14.1-6.3,14.1-14.1C529.2,633.1,522.9,626.8,515.1,626.8L515.1,626.8L515.1,626.8z"></path><path d="M967,538.5l-49.6,93l-49.6-93h-22.9v138.6h21.7v-93.6l50.8,91.7l50.8-91.7v93.6H990V538.5L967,538.5L967,538.5z"></path><path d="M664.3,646.4c-9.4,8.3-21.5,13-34.1,13c-28.4,0-51.5-23.1-51.5-51.5c0-28.4,23.1-51.5,51.5-51.5c12.6,0,24.7,4.6,34.1,13l1.7,1.5l15.6-15.6l-1.9-1.7c-13.6-12.4-31.2-19.2-49.5-19.2c-40.6,0-73.6,33-73.6,73.6c0,40.6,33,73.6,73.6,73.6c18.3,0,36-6.8,49.6-19.2l1.8-1.7L666,644.8L664.3,646.4L664.3,646.4L664.3,646.4z"></path></g>
</svg>