<?xml version="1.0" encoding="UTF-8" standalone="no"?>
<!DOCTYPE svg PUBLIC "-//W3C//DTD SVG 1.1//EN" "http://www.w3.org/Graphics/SVG/1.1/DTD/svg11.dtd">
<svg width="100%" height="100%" viewBox="0 0 2064 260" version="1.1" xmlns="http://www.w3.org/2000/svg" xmlns:xlink="http://www.w3.org/1999/xlink" xml:space="preserve" xmlns:serif="http://www.serif.com/" style="fill-rule:evenodd;clip-rule:evenodd;stroke-linejoin:round;stroke-miterlimit:1.41421;">
    <g id="Layer-1" serif:id="Layer 1" transform="matrix(4.16667,0,0,4.16667,0,0)">
        <g transform="matrix(1,0,0,1,0.0794,24.8483)">
            <path d="M0,12.619C0,30.983 8.15,37.467 22.841,37.467L57.417,37.467C60.121,37.467 62.314,35.274 62.314,32.568L62.314,-19.951C62.314,-22.656 60.121,-24.848 57.417,-24.848L4.897,-24.848C2.193,-24.848 0,-22.656 0,-19.951L0,12.619Z" style="fill:white;"/>
        </g>
        <g transform="matrix(1,0,0,1,-0.0002,62.393)">
            <path d="M0,-62.393L0,-27.977C1.556,-33.379 4.625,-38.271 9.226,-42.648C16.177,-49.255 24.373,-52.56 33.817,-52.56C39.673,-52.56 44.426,-50.626 48.068,-46.755C51.709,-42.884 53.534,-37.831 53.534,-31.59C53.534,-22.559 50.042,-14.75 43.064,-8.166C38.98,-4.314 34.451,-1.598 29.485,0L62.394,0L62.394,-62.393L0,-62.393ZM39.087,-8.977C43.141,-14.01 45.168,-20.257 45.168,-27.722C45.168,-33.967 43.584,-39.146 40.417,-43.257C37.25,-47.368 33.269,-49.422 28.477,-49.422C22.403,-49.422 17.335,-46.911 13.267,-41.89C9.201,-36.87 7.167,-30.603 7.167,-23.092C7.167,-16.816 8.751,-11.641 11.917,-7.555C15.083,-3.469 19.107,-1.428 23.989,-1.428C30.001,-1.428 35.034,-3.945 39.087,-8.977" style="fill:rgb(199,32,45);"/>
        </g>
        <g transform="matrix(1,0,0,1,350.243,43.6419)">
            <path d="M0,-22.743L-7.426,-22.743L-22.345,-8.092L-22.345,-35.669L-27.978,-35.669L-27.978,11.931L-22.345,11.931L-22.345,-1.194L-17.505,-5.571L-6.695,11.931L0.792,11.931L-13.263,-9.815L0,-22.743ZM-47.475,-18.499C-42.564,-18.499 -39.983,-15.716 -39.254,-11.073L-33.617,-11.073C-34.081,-17.107 -37.53,-23.736 -46.613,-23.736C-58.083,-23.736 -63.252,-15.183 -63.252,-4.445C-63.252,5.567 -57.484,12.926 -47.737,12.926C-37.597,12.926 -34.216,5.168 -33.617,-0.335L-39.254,-0.335C-40.247,4.971 -43.631,7.888 -47.544,7.888C-55.564,7.888 -57.021,0.528 -57.021,-5.438C-57.021,-11.603 -54.699,-18.499 -47.475,-18.499M-84.669,7.82C-93.021,7.82 -94.748,-0.797 -94.748,-5.438C-94.748,-10.08 -93.021,-18.699 -84.669,-18.699C-76.316,-18.699 -74.594,-10.08 -74.594,-5.438C-74.594,-0.797 -76.316,7.82 -84.669,7.82M-84.669,-23.736C-95.744,-23.736 -100.782,-14.389 -100.782,-5.438C-100.782,3.509 -95.744,12.858 -84.669,12.858C-73.598,12.858 -68.56,3.509 -68.56,-5.438C-68.56,-14.389 -73.598,-23.736 -84.669,-23.736M-109.733,-32.42L-115.566,-32.42L-115.566,-22.743L-120.272,-22.743L-120.272,-17.903L-115.566,-17.903L-115.566,4.971C-115.566,9.148 -114.307,12.395 -108.54,12.395C-107.94,12.395 -106.287,12.13 -104.162,11.931L-104.162,7.355L-106.218,7.355C-107.411,7.355 -109.733,7.355 -109.733,4.639L-109.733,-17.903L-104.162,-17.903L-104.162,-22.743L-109.733,-22.743L-109.733,-32.42ZM-133.333,-7.692L-139.163,-9.152C-143.671,-10.278 -145.46,-10.941 -145.46,-13.792C-145.46,-18.099 -140.356,-18.699 -138.564,-18.699C-131.209,-18.699 -130.413,-15.052 -130.347,-12.863L-124.711,-12.863C-124.711,-14.588 -125.572,-23.736 -137.969,-23.736C-144.799,-23.736 -151.096,-20.29 -151.096,-12.666C-151.096,-7.891 -147.913,-5.438 -143.076,-4.246L-136.312,-2.587C-131.344,-1.33 -129.417,-0.4 -129.417,2.383C-129.417,6.229 -133.198,7.888 -137.374,7.888C-145.595,7.888 -146.391,3.509 -146.588,0.795L-152.224,0.795C-152.023,4.971 -151.031,12.926 -137.305,12.926C-129.486,12.926 -123.583,8.616 -123.583,1.456C-123.583,-3.25 -126.102,-5.902 -133.333,-7.692M-165.355,-16.975L-165.486,-16.975L-165.486,-22.743L-170.988,-22.743L-170.988,11.931L-165.154,11.931L-165.154,-8.222C-165.154,-13.263 -161.708,-17.505 -156.269,-17.505L-154.083,-17.505L-154.083,-23.539C-154.546,-23.67 -154.878,-23.736 -155.605,-23.736C-159.985,-23.736 -163.033,-21.018 -165.355,-16.975M-203.064,-8.156C-203.064,-13.526 -198.822,-18.499 -193.449,-18.499C-186.356,-18.499 -184.104,-13.526 -183.771,-8.156L-203.064,-8.156ZM-192.653,-23.736C-204.123,-23.736 -209.295,-15.183 -209.295,-4.445C-209.295,5.567 -203.528,12.926 -193.781,12.926C-188.214,12.926 -185.958,11.601 -184.367,10.536C-179.993,7.621 -178.402,2.715 -178.201,1.058L-184.034,1.058C-184.235,3.646 -187.484,7.888 -192.985,7.888C-199.684,7.888 -203.064,3.71 -203.064,-3.516L-177.737,-3.516C-177.737,-15.78 -182.644,-23.736 -192.653,-23.736M-226.993,5.5L-227.124,5.5L-236.141,-22.743L-242.901,-22.743L-230.242,11.931L-224.007,11.931L-210.818,-22.743L-217.18,-22.743L-226.993,5.5ZM-260.865,7.82C-269.218,7.82 -270.94,-0.797 -270.94,-5.438C-270.94,-10.08 -269.218,-18.699 -260.865,-18.699C-252.513,-18.699 -250.787,-10.08 -250.787,-5.438C-250.787,-0.797 -252.513,7.82 -260.865,7.82M-260.865,-23.736C-271.937,-23.736 -276.975,-14.389 -276.975,-5.438C-276.975,3.509 -271.937,12.858 -260.865,12.858C-249.793,12.858 -244.756,3.509 -244.756,-5.438C-244.756,-14.389 -249.793,-23.736 -260.865,-23.736" style="fill:rgb(35,31,32);fill-rule:nonzero;"/>
        </g>
        <g transform="matrix(1,0,0,1,0,41.6565)">
            <rect x="356.063" y="6.843" width="6.76" height="7.051" style="fill:rgb(35,31,32);"/>
        </g>
        <g transform="matrix(1,0,0,1,393.308,53.7074)">
            <path d="M0,-30.952C2.447,-29.054 3.919,-25.787 4.415,-21.152L-1.245,-21.152C-1.59,-23.286 -2.377,-25.06 -3.605,-26.472C-4.835,-27.884 -6.808,-28.591 -9.524,-28.591C-13.233,-28.591 -15.886,-26.782 -17.48,-23.164C-18.516,-20.817 -19.033,-17.92 -19.033,-14.474C-19.033,-11.007 -18.301,-8.09 -16.834,-5.721C-15.368,-3.351 -13.061,-2.167 -9.912,-2.167C-7.498,-2.167 -5.584,-2.902 -4.172,-4.374C-2.76,-5.845 -1.784,-7.858 -1.245,-10.414L4.415,-10.414C3.768,-5.822 2.151,-2.464 -0.437,-0.34C-3.023,1.784 -6.334,2.846 -10.365,2.846C-14.894,2.846 -18.505,1.192 -21.2,-2.119C-23.896,-5.429 -25.243,-9.562 -25.243,-14.522C-25.243,-20.602 -23.767,-25.335 -20.812,-28.72C-17.858,-32.105 -14.096,-33.798 -9.524,-33.798C-5.622,-33.798 -2.447,-32.849 0,-30.952" style="fill:rgb(35,31,32);fill-rule:nonzero;"/>
        </g>
        <g transform="matrix(1,0,0,1,426.352,29.2991)">
            <path d="M0,18.091C1.419,15.173 2.128,11.926 2.128,8.351C2.128,5.121 1.615,2.493 0.592,0.469C-1.027,-2.718 -3.821,-4.312 -7.786,-4.312C-11.305,-4.312 -13.862,-2.955 -15.462,-0.242C-17.061,2.473 -17.86,5.745 -17.86,9.578C-17.86,13.262 -17.061,16.33 -15.462,18.785C-13.862,21.24 -11.326,22.468 -7.85,22.468C-4.034,22.468 -1.418,21.009 0,18.091M3.615,-4.93C6.677,-1.957 8.208,2.416 8.208,8.189C8.208,13.769 6.858,18.379 4.161,22.02C1.464,25.66 -2.723,27.481 -8.396,27.481C-13.128,27.481 -16.886,25.87 -19.669,22.65C-22.452,19.429 -23.844,15.105 -23.844,9.675C-23.844,3.859 -22.377,-0.772 -19.444,-4.22C-16.511,-7.666 -12.571,-9.39 -7.626,-9.39C-3.193,-9.39 0.554,-7.903 3.615,-4.93" style="fill:rgb(35,31,32);fill-rule:nonzero;"/>
        </g>
        <g transform="matrix(1,0,0,1,440.383,54.7741)">
            <path d="M0,-33.862L5.758,-33.862L5.758,-28.946C7.137,-30.649 8.388,-31.889 9.51,-32.665C11.429,-33.981 13.605,-34.638 16.042,-34.638C18.802,-34.638 21.023,-33.959 22.705,-32.601C23.653,-31.824 24.516,-30.681 25.293,-29.173C26.586,-31.027 28.106,-32.401 29.853,-33.296C31.6,-34.191 33.561,-34.638 35.739,-34.638C40.396,-34.638 43.565,-32.956 45.248,-29.593C46.153,-27.782 46.606,-25.345 46.606,-22.283L46.606,0.776L40.559,0.776L40.559,-23.286C40.559,-25.593 39.981,-27.178 38.827,-28.04C37.674,-28.903 36.268,-29.334 34.607,-29.334C32.321,-29.334 30.354,-28.569 28.704,-27.038C27.055,-25.507 26.23,-22.951 26.23,-19.373L26.23,0.776L20.312,0.776L20.312,-21.831C20.312,-24.18 20.031,-25.895 19.471,-26.973C18.586,-28.591 16.937,-29.399 14.522,-29.399C12.323,-29.399 10.323,-28.547 8.522,-26.844C6.723,-25.14 5.822,-22.058 5.822,-17.594L5.822,0.776L0,0.776L0,-33.862Z" style="fill:rgb(35,31,32);fill-rule:nonzero;"/>
        </g>
        <g transform="matrix(1,0,0,1,491.522,17.4536)">
            <path d="M0,-2.687C-0.16,-2.749 -0.386,-2.78 -0.677,-2.78L-0.961,-2.78L-0.961,-1.486L-0.508,-1.486C-0.234,-1.486 -0.021,-1.541 0.132,-1.649C0.284,-1.758 0.36,-1.935 0.36,-2.179C0.36,-2.423 0.24,-2.592 0,-2.687M-2.13,0.896L-2.13,-3.567C-1.854,-3.567 -1.438,-3.566 -0.888,-3.564C-0.336,-3.562 -0.029,-3.559 0.033,-3.555C0.387,-3.53 0.68,-3.454 0.912,-3.326C1.31,-3.108 1.508,-2.752 1.508,-2.261C1.508,-1.886 1.403,-1.615 1.193,-1.449C0.984,-1.282 0.727,-1.182 0.421,-1.15C0.701,-1.091 0.912,-1.005 1.055,-0.892C1.316,-0.679 1.448,-0.345 1.448,0.11L1.448,0.508C1.448,0.552 1.45,0.595 1.457,0.639C1.462,0.683 1.473,0.727 1.488,0.77L1.529,0.896L0.415,0.896C0.379,0.754 0.354,0.548 0.342,0.279C0.329,0.009 0.305,-0.172 0.268,-0.267C0.21,-0.424 0.101,-0.533 -0.06,-0.595C-0.147,-0.631 -0.28,-0.655 -0.458,-0.666L-0.715,-0.682L-0.961,-0.682L-0.961,0.896L-2.13,0.896ZM-2.73,-3.675C-3.372,-3.02 -3.692,-2.243 -3.692,-1.343C-3.692,-0.412 -3.366,0.38 -2.714,1.033C-2.066,1.684 -1.283,2.01 -0.365,2.01C0.548,2.01 1.329,1.682 1.978,1.027C2.626,0.368 2.95,-0.422 2.95,-1.343C2.95,-2.239 2.628,-3.017 1.983,-3.675C1.331,-4.345 0.548,-4.681 -0.365,-4.681C-1.291,-4.681 -2.079,-4.345 -2.73,-3.675M2.453,1.546C1.67,2.303 0.73,2.682 -0.365,2.682C-1.498,2.682 -2.452,2.294 -3.228,1.519C-4.003,0.743 -4.392,-0.21 -4.392,-1.343C-4.392,-2.52 -3.973,-3.498 -3.135,-4.277C-2.349,-5.004 -1.425,-5.369 -0.365,-5.369C0.745,-5.369 1.693,-4.976 2.48,-4.189C3.267,-3.403 3.66,-2.454 3.66,-1.343C3.66,-0.2 3.258,0.763 2.453,1.546" style="fill:rgb(35,31,32);fill-rule:nonzero;"/>
        </g>
    </g>
</svg>
