<svg xmlns="http://www.w3.org/2000/svg" version="1.1" alt="" viewBox="0.49 1.56 68.38 16.47"><path d="M37.5131293,1.55870319 C37.8903738,1.55870319 38.2440163,1.74149229 38.4624118,2.04924174 L42.8472865,8.63597944 L47.2363552,2.04314106 C47.4504949,1.74157941 47.8043675,1.55870319 48.1814437,1.55870319 L49.368676,1.55870319 C50.2900831,1.55870319 51.0369676,2.30558768 51.0369676,3.22699476 L51.0369676,16.3630032 C51.0369676,17.2841723 50.290046,18.0310198 49.368676,18.0310198 C48.4470679,18.0310198 47.7001094,17.2842093 47.7001094,16.3630032 L47.7001094,6.96341116 L44.0163449,12.1512646 C43.4448189,12.9562771 42.2497541,12.9562771 41.6782392,12.1512802 L37.9944636,6.96341116 L37.9944636,16.3630032 C37.9944636,17.2841723 37.2475421,18.0310198 36.326172,18.0310198 C35.404802,18.0310198 34.6578804,17.2841723 34.6578804,16.3630032 L34.6578804,3.22699476 C34.6578804,2.30558768 35.4047649,1.55870319 36.326172,1.55870319 L37.5131293,1.55870319 Z M67.2010035,1.5587582 C68.1228601,1.5587582 68.8698451,2.3058172 68.8698451,3.22759979 L68.8698451,11.1070048 C68.8698451,15.6242171 66.1921873,18.0310748 61.4755023,18.0310748 C56.8095899,18.0310748 54.1807144,15.6459752 54.1807144,11.2205853 L54.1807144,3.22759979 C54.1807144,2.3059177 54.9278739,1.5587582 55.849556,1.5587582 C56.7710001,1.5587582 57.5181226,2.30595472 57.5181226,3.22759979 L57.5181226,11.1295559 C57.5181226,13.8011577 58.9966255,15.3044711 61.5255548,15.3044711 C64.0552405,15.3044711 65.5324369,13.847362 65.5324369,11.2431363 L65.5324369,3.22759979 C65.5324369,2.30585422 66.2793848,1.5587582 67.2010035,1.5587582 Z M13.3595119,1.55862069 C14.2808185,1.55862069 15.0278035,2.3056797 15.0278035,3.22691225 C15.0278035,4.14831933 14.280919,4.89520382 13.3595119,4.89520382 L9.42660838,4.89520382 L9.42660838,16.3450449 C9.42660838,17.266452 8.67972389,18.0133364 7.75831682,18.0133364 C6.83714774,18.0133364 6.09030027,17.2664149 6.09030027,16.3450449 L6.09030027,4.89520382 L2.15794674,4.89520382 C1.23653966,4.89520382 0.489655172,4.14831933 0.489655172,3.22691225 C0.489655172,2.3056797 1.23664014,1.55862069 2.15794674,1.55862069 L13.3595119,1.55862069 Z M29.9298585,1.55867569 C30.8512656,1.55867569 31.5981501,2.30556018 31.5981501,3.22696726 C31.5981501,4.14837433 30.8512656,4.89525882 29.9298585,4.89525882 L21.2216247,4.89525882 L21.2216247,8.11774201 L28.8372309,8.11774201 C29.7586379,8.11774201 30.5055224,8.86462649 30.5055224,9.78603357 C30.5055224,10.7073772 29.7587014,11.4540501 28.8372309,11.4540501 L21.2216247,11.4540501 L21.2216247,14.6768083 L29.9298585,14.6768083 C30.8511651,14.6768083 31.5981501,15.4238673 31.5981501,16.3450999 C31.5981501,17.266507 30.8512656,18.0133914 29.9298585,18.0133914 L19.5533331,18.0133914 C18.6319261,18.0133914 17.8850416,17.266507 17.8850416,16.3450999 L17.8850416,3.22696726 C17.8850416,2.30556018 18.6319261,1.55867569 19.5533331,1.55867569 L29.9298585,1.55867569 Z" fill="#FB7701"/></svg>