<?xml version="1.0" encoding="UTF-8" standalone="no"?>
<!-- Created with Inkscape (http://www.inkscape.org/) -->

<svg
   width="1000"
   height="190.12918"
   viewBox="0 0 264.58334 50.305009"
   version="1.1"
   id="svg1"
   inkscape:version="1.4 (86a8ad7, 2024-10-11)"
   xml:space="preserve"
   sodipodi:docname="Walmart 2025.svg"
   xmlns:inkscape="http://www.inkscape.org/namespaces/inkscape"
   xmlns:sodipodi="http://sodipodi.sourceforge.net/DTD/sodipodi-0.dtd"
   xmlns="http://www.w3.org/2000/svg"
   xmlns:svg="http://www.w3.org/2000/svg"><sodipodi:namedview
     id="namedview1"
     pagecolor="#404040"
     bordercolor="#000000"
     borderopacity="0.25"
     inkscape:showpageshadow="false"
     inkscape:pageopacity="0.0"
     inkscape:pagecheckerboard="0"
     inkscape:deskcolor="#d1d1d1"
     inkscape:document-units="mm"
     borderlayer="false"
     inkscape:zoom="0.68862937"
     inkscape:cx="205.48064"
     inkscape:cy="-137.22912"
     inkscape:window-width="1920"
     inkscape:window-height="991"
     inkscape:window-x="-9"
     inkscape:window-y="-9"
     inkscape:window-maximized="1"
     inkscape:current-layer="layer1" /><defs
     id="defs1"><style
       id="style1">
      .st0 {
        fill: #0157e9;
      }
    </style></defs><g
     inkscape:label="Layer 1"
     inkscape:groupmode="layer"
     id="layer1"
     transform="translate(-54.504167,-108.74375)"><g
       clip-path="none"
       id="g9"
       transform="matrix(0.43162073,0,0,0.43162073,54.504167,108.7438)"
       style="font-variation-settings:normal;opacity:1;vector-effect:none;fill:#0053e2;fill-opacity:1;stroke-width:1.96006829;stroke-linecap:butt;stroke-linejoin:miter;stroke-miterlimit:4;stroke-dasharray:none;stroke-dashoffset:0;stroke-opacity:1;-inkscape-stroke:none;stop-color:#000000;stop-opacity:1"><path
         d="M 120.594,0 105.854,74.6036 89.316,0 H 60.5936 L 44.0556,74.6036 29.3248,0 H 0 L 23.9125,113.958 H 58.038 L 74.7312,38.2933 91.4243,113.958 H 124.801 L 148.559,0 Z"
         fill="#ffffff"
         id="path3"
         style="font-variation-settings:normal;vector-effect:none;fill:#0053e2;fill-opacity:1;stroke-width:1.96006829;stroke-linecap:butt;stroke-linejoin:miter;stroke-miterlimit:4;stroke-dasharray:none;stroke-dashoffset:0;stroke-opacity:1;-inkscape-stroke:none;stop-color:#000000;stop-opacity:1" /><path
         d="m 180.513,98.1586 c -6.617,0 -10.222,-4.1042 -10.222,-9.7209 0,-7.2953 5.714,-10.1821 12.933,-12.7644 3.76,-1.4296 7.53,-2.9145 10.076,-5.1648 v 12.6076 c 0,9.5733 -4.965,15.0425 -12.778,15.0425 m 3.907,-77.1861 c -18.199,0 -30.977,6.2347 -35.641,10.634 v 24.3114 c 5.412,-4.8604 16.839,-11.9989 31.88,-11.9989 9.319,0 12.778,2.5824 12.778,7.904 0,4.556 -4.81,6.3822 -18.199,9.2689 -20.298,4.2518 -32.026,11.7038 -32.026,29.4762 0,16.4079 10.678,25.9809 26.167,25.9809 12.969,0 20.718,-6.078 24.962,-14.249 v 11.667 h 27.965 V 58.0484 c 0,-25.6764 -13.234,-37.0759 -37.895,-37.0759"
         fill="#ffffff"
         id="path4"
         style="font-variation-settings:normal;vector-effect:none;fill:#0053e2;fill-opacity:1;stroke-width:1.96006829;stroke-linecap:butt;stroke-linejoin:miter;stroke-miterlimit:4;stroke-dasharray:none;stroke-dashoffset:0;stroke-opacity:1;-inkscape-stroke:none;stop-color:#000000;stop-opacity:1" /><path
         d="m 261.805,0 h -29.024 v 113.958 h 29.024 z"
         fill="#ffffff"
         id="path5"
         style="font-variation-settings:normal;vector-effect:none;fill:#0053e2;fill-opacity:1;stroke-width:1.96006829;stroke-linecap:butt;stroke-linejoin:miter;stroke-miterlimit:4;stroke-dasharray:none;stroke-dashoffset:0;stroke-opacity:1;-inkscape-stroke:none;stop-color:#000000;stop-opacity:1" /><path
         d="m 378.279,21.2773 c -14.083,0 -23.183,8.5496 -27.938,19.9398 -2.555,-12.2018 -11.034,-19.9398 -22.89,-19.9398 -13.426,0 -22.179,7.9132 -26.614,19.0268 V 23.8597 H 272.27 v 90.1073 h 29.023 V 63.9791 c 0,-12.3032 4.062,-19.2942 12.778,-19.2942 7.064,0 9.474,4.8605 9.474,12.4601 v 56.831 h 29.023 V 63.9884 c 0,-12.3033 4.062,-19.2942 12.778,-19.2942 7.064,0 9.474,4.8604 9.474,12.46 v 56.8308 h 29.023 V 53.0316 c 0,-18.9898 -8.871,-31.7543 -25.564,-31.7543 z"
         fill="#ffffff"
         id="path6"
         style="font-variation-settings:normal;vector-effect:none;fill:#0053e2;fill-opacity:1;stroke-width:1.96006829;stroke-linecap:butt;stroke-linejoin:miter;stroke-miterlimit:4;stroke-dasharray:none;stroke-dashoffset:0;stroke-opacity:1;-inkscape-stroke:none;stop-color:#000000;stop-opacity:1" /><path
         d="m 447.444,98.1586 c -6.617,0 -10.222,-4.1042 -10.222,-9.7209 0,-7.2953 5.714,-10.1821 12.933,-12.7644 3.76,-1.4296 7.53,-2.9145 10.076,-5.1648 v 12.6076 c 0,9.5733 -4.965,15.0425 -12.787,15.0425 z m 3.907,-77.1861 c -18.199,0 -30.977,6.2347 -35.641,10.634 v 24.3114 c 5.412,-4.8604 16.839,-11.9989 31.88,-11.9989 9.319,0 12.778,2.5824 12.778,7.904 0,4.556 -4.81,6.3822 -18.199,9.2689 -20.298,4.2518 -32.026,11.7038 -32.026,29.4762 0,16.4079 10.678,25.9809 26.166,25.9809 12.97,0 20.719,-6.078 24.963,-14.249 v 11.667 h 27.964 V 58.0484 c 0,-25.6764 -13.234,-37.0759 -37.895,-37.0759"
         fill="#ffffff"
         id="path7"
         style="font-variation-settings:normal;vector-effect:none;fill:#0053e2;fill-opacity:1;stroke-width:1.96006829;stroke-linecap:butt;stroke-linejoin:miter;stroke-miterlimit:4;stroke-dasharray:none;stroke-dashoffset:0;stroke-opacity:1;-inkscape-stroke:none;stop-color:#000000;stop-opacity:1" /><path
         d="M 527.589,49.3147 V 23.8596 h -28.421 v 90.1074 h 29.024 V 75.6736 c 0,-17.6249 10.824,-22.3378 21.201,-22.3378 3.459,0 6.763,0.4519 8.269,0.9131 v -30.998 c -16.328,-0.7932 -26.249,9.7393 -30.073,26.0638 z"
         fill="#ffffff"
         id="path8"
         sodipodi:nodetypes="cccccssccc"
         style="font-variation-settings:normal;vector-effect:none;fill:#0053e2;fill-opacity:1;stroke-width:1.96006829;stroke-linecap:butt;stroke-linejoin:miter;stroke-miterlimit:4;stroke-dasharray:none;stroke-dashoffset:0;stroke-opacity:1;-inkscape-stroke:none;stop-color:#000000;stop-opacity:1" /><path
         d="M 612.999,46.6487 V 23.859 H 594.508 V 6.38171 H 565.484 V 83.8721 c 0,21.7289 12.176,31.9109 31.579,31.9109 9.027,0 13.837,-1.826 15.936,-3.191 V 89.95 c -1.652,1.2174 -4.363,2.1304 -7.822,2.1304 -6.462,0.1476 -10.678,-2.7392 -10.678,-12.3032 V 46.6487 h 18.491 z"
         fill="#ffffff"
         id="path9"
         style="font-variation-settings:normal;vector-effect:none;fill:#0053e2;fill-opacity:1;stroke-width:1.96006829;stroke-linecap:butt;stroke-linejoin:miter;stroke-miterlimit:4;stroke-dasharray:none;stroke-dashoffset:0;stroke-opacity:1;-inkscape-stroke:none;stop-color:#000000;stop-opacity:1" /></g></g></svg>
